<svg xmlns="http://www.w3.org/2000/svg" width="192" height="192" viewBox="0 0 192 192">
  <rect width="192" height="192" rx="32" fill="#2563EB"/>
  <g transform="translate(40, 40)">
    <path d="M56 8C56 3.58172 52.4183 0 48 0H64C68.4183 0 72 3.58172 72 8V16H56V8Z" fill="white"/>
    <path d="M16 8C16 3.58172 19.5817 0 24 0H40C44.4183 0 48 3.58172 48 8V16H16V8Z" fill="white"/>
    <rect x="8" y="16" width="96" height="80" rx="8" fill="white"/>
    <path d="M56 96L72 112H40L56 96Z" fill="white"/>
    <circle cx="40" cy="48" r="12" fill="#2563EB"/>
    <circle cx="72" cy="48" r="12" fill="#2563EB"/>
    <rect x="32" y="64" width="48" height="8" rx="4" fill="#2563EB"/>
  </g>
</svg>
