<svg xmlns="http://www.w3.org/2000/svg" width="512" height="512" viewBox="0 0 512 512">
  <rect width="512" height="512" rx="80" fill="#2563EB"/>
  <g transform="translate(106, 106)">
    <path d="M150 21C150 9.40202 140.598 0 129 0H171C182.598 0 192 9.40202 192 21V42H150V21Z" fill="white"/>
    <path d="M42 21C42 9.40202 51.402 0 63 0H105C116.598 0 126 9.40202 126 21V42H42V21Z" fill="white"/>
    <rect x="21" y="42" width="258" height="216" rx="21" fill="white"/>
    <path d="M150 258L192 300H108L150 258Z" fill="white"/>
    <circle cx="108" cy="126" r="32" fill="#2563EB"/>
    <circle cx="192" cy="126" r="32" fill="#2563EB"/>
    <rect x="84" y="168" width="132" height="21" rx="10.5" fill="#2563EB"/>
  </g>
</svg>
